<svg width="2000px" height="1333px" xmlns="http://www.w3.org/2000/svg" xmlns:xlink="http://www.w3.org/1999/xlink">
<g style="">  <rect x="0.000000" y="889.000000" width="2000.000000" height="444.000000" style="fill: rgba(2, 28, 84, 1.000000); " fill="#002867" stroke="none"  />
  <rect x="0.000000" y="0.000000" width="2000.000000" height="444.000000" style="fill: rgba(2, 28, 84, 1.000000); " fill="#002867" stroke="none"  />
  <rect x="0.000000" y="444.000000" width="2000.000000" height="445.000000" style="fill: rgba(255, 255, 255, 1.000000); " fill="#feffff" stroke="none"  />
</g><g style="">  <ellipse cx="1219.000000" cy="667.000000" rx="443.000000" ry="443.000000" style="fill: rgba(176, 0, 37, 1.000000); " fill="#bf0a2f" stroke="none"  />
  <path d="M1244.000000,645.603774 L1669.000000,445.000000 L1669.000000,888.000000 L1663.407895,888.000000 " style="fill: rgba(255, 255, 255, 1.000000); " fill="#feffff" stroke="none" />
  <path d="M56.365938,594.744063 C52.845920,594.744063,49.875950,593.644073,47.455938,591.444062 C45.035925,589.244052,43.825938,586.457413,43.825938,583.084062 C43.825938,579.564045,45.035925,576.740740,47.455938,574.614063 C49.875950,572.487385,52.845920,571.424062,56.365938,571.424062 C59.885955,571.424062,62.855925,572.487385,65.275937,574.614063 C67.695950,576.740740,68.905937,579.564045,68.905937,583.084062 C68.905937,586.457413,67.695950,589.244052,65.275937,591.444062 C62.855925,593.644073,59.885955,594.744063,56.365938,594.744063 Z M47.125937,616.744062 L65.165937,616.744062 L65.165937,723.664062 L47.125937,723.664062 Z M155.805937,726.304062 C146.712559,726.304062,138.389309,724.544080,130.835938,721.024063 C123.282566,717.504045,116.755965,712.480762,111.255938,705.954062 C105.755910,699.427363,101.502619,691.507442,98.495937,682.194062 C95.489256,672.880683,93.985937,662.430787,93.985937,650.844063 C93.985937,639.257338,95.489256,628.880775,98.495937,619.714062 C101.502619,610.547350,105.755910,602.774094,111.255938,596.394063 C116.755965,590.014031,123.282566,585.137413,130.835938,581.764063 C138.389309,578.390712,146.712559,576.704062,155.805937,576.704062 C164.752649,576.704062,173.002566,578.427379,180.555937,581.874063 C188.109309,585.320746,194.635910,590.234031,200.135938,596.614063 C205.635965,602.994094,209.889256,610.767350,212.895938,619.934062 C215.902619,629.100775,217.405937,639.404005,217.405937,650.844063 C217.405937,662.430787,215.902619,672.880683,212.895938,682.194062 C209.889256,691.507442,205.635965,699.427363,200.135938,705.954062 C194.635910,712.480762,188.109309,717.504045,180.555937,721.024063 C173.002566,724.544080,164.752649,726.304062,155.805937,726.304062 Z M155.805937,710.244063 C162.259303,710.244062,168.089245,708.850743,173.295938,706.064062 C178.502630,703.277382,182.975919,699.280755,186.715937,694.074062 C190.455956,688.867370,193.352594,682.634099,195.405937,675.374063 C197.459281,668.114026,198.485938,659.937441,198.485938,650.844063 C198.485938,641.897351,197.459281,633.830765,195.405937,626.644063 C193.352594,619.457360,190.455956,613.370754,186.715937,608.384063 C182.975919,603.397371,178.502630,599.547409,173.295938,596.834063 C168.089245,594.120716,162.259303,592.764063,155.805937,592.764063 C149.352572,592.764063,143.485964,594.120716,138.205938,596.834063 C132.925911,599.547409,128.415956,603.397371,124.675938,608.384063 C120.935919,613.370754,118.039281,619.457360,115.985938,626.644063 C113.932594,633.830765,112.905937,641.897351,112.905937,650.844063 C112.905937,659.937441,113.932594,668.114026,115.985938,675.374063 C118.039281,682.634099,120.935919,688.867370,124.675938,694.074062 C128.415956,699.280755,132.925911,703.277382,138.205938,706.064062 C143.485964,708.850743,149.352572,710.244062,155.805937,710.244063 Z M247.985938,692.204062 C253.119296,697.630756,259.132570,701.994046,266.025937,705.294062 C272.919305,708.594079,280.179233,710.244062,287.805937,710.244063 C297.339318,710.244062,304.745911,708.080751,310.025937,703.754063 C315.305964,699.427374,317.945938,693.744098,317.945938,686.704062 C317.945938,683.037378,317.322610,679.920742,316.075938,677.354063 C314.829265,674.787383,313.105949,672.587405,310.905937,670.754062 C308.705927,668.920720,306.139286,667.270736,303.205938,665.804062 C300.272589,664.337388,297.119288,662.797404,293.745937,661.184062 L273.065938,652.164062 C269.692587,650.697388,266.282621,648.937406,262.835938,646.884063 C259.389254,644.830719,256.235952,642.337411,253.375937,639.404063 C250.515923,636.470714,248.205946,632.987416,246.445937,628.954062 C244.685929,624.920709,243.805937,620.264089,243.805937,614.984062 C243.805937,609.557369,244.942593,604.497419,247.215937,599.804062 C249.489282,595.110706,252.679250,591.040746,256.785937,587.594063 C260.892625,584.147379,265.695910,581.470739,271.195938,579.564062 C276.695965,577.657386,282.745904,576.704062,289.345937,576.704062 C297.999314,576.704062,305.955901,578.354046,313.215937,581.654063 C320.475974,584.954079,326.672578,589.244036,331.805938,594.524063 L322.125937,606.404063 C317.725915,602.150708,312.812631,598.814075,307.385938,596.394063 C301.959244,593.974050,295.945970,592.764063,289.345937,592.764063 C281.132563,592.764063,274.569295,594.634044,269.655937,598.374063 C264.742580,602.114081,262.285937,607.284029,262.285937,613.884063 C262.285937,617.404080,263.019263,620.374050,264.485937,622.794062 C265.952611,625.214075,267.822593,627.340720,270.095937,629.174062 C272.369282,631.007405,274.935923,632.620722,277.795937,634.014063 C280.655952,635.407403,283.479257,636.690723,286.265938,637.864063 L306.945938,646.664062 C311.052625,648.424071,314.939253,650.440718,318.605937,652.714062 C322.272622,654.987407,325.425924,657.627381,328.065938,660.634063 C330.705951,663.640744,332.795930,667.160709,334.335938,671.194062 C335.875945,675.227416,336.645938,679.884036,336.645938,685.164062 C336.645938,690.884091,335.509282,696.237371,333.235937,701.224062 C330.962593,706.210754,327.699292,710.574044,323.445938,714.314062 C319.192583,718.054081,314.022635,720.987385,307.935938,723.114063 C301.849240,725.240740,294.992642,726.304062,287.365937,726.304062 C277.245887,726.304062,267.895980,724.397415,259.315938,720.584062 C250.735895,716.770710,243.292636,711.564096,236.985938,704.964062 Z M408.145938,579.344063 L444.225937,579.344063 C466.519382,579.344063,483.459213,585.504001,495.045938,597.824062 C506.632662,610.144124,512.425938,627.817281,512.425938,650.844063 C512.425938,662.284120,510.959285,672.514017,508.025937,681.534063 C505.092590,690.554108,500.765966,698.180698,495.045938,704.414062 C489.325909,710.647427,482.285979,715.414046,473.925938,718.714062 C465.565896,722.014079,455.959325,723.664062,445.105938,723.664062 L408.145938,723.664062 Z M442.905937,708.704062 C459.919356,708.704062,472.605896,703.644113,480.965937,693.524063 C489.325979,683.404012,493.505938,669.177487,493.505938,650.844063 C493.505938,632.510638,489.325979,618.504111,480.965937,608.824062 C472.605896,599.144014,459.919356,594.304062,442.905937,594.304062 L426.625938,594.304062 L426.625938,708.704062 Z M533.765938,670.424062 C533.765938,661.624019,535.122591,653.740764,537.835938,646.774063 C540.549284,639.807361,544.142582,633.904087,548.615938,629.064062 C553.089293,624.224038,558.185909,620.520742,563.905938,617.954062 C569.625966,615.387383,575.565907,614.104063,581.725938,614.104063 C588.472638,614.104063,594.522577,615.277384,599.875938,617.624063 C605.229298,619.970741,609.702586,623.344041,613.295938,627.744062 C616.889289,632.144084,619.639261,637.424032,621.545938,643.584063 C623.452614,649.744093,624.405938,656.637358,624.405938,664.264063 C624.405938,668.224082,624.185940,671.524049,623.745938,674.164062 L551.585938,674.164062 C552.319275,685.750787,555.875906,694.917362,562.255938,701.664062 C568.635969,708.410763,576.959220,711.784063,587.225938,711.784063 C592.359297,711.784063,597.089249,711.014070,601.415938,709.474062 C605.742626,707.934055,609.885918,705.917408,613.845938,703.424062 L620.225938,715.304062 C615.532581,718.237411,610.325966,720.804052,604.605938,723.004063 C598.885909,725.204074,592.359308,726.304062,585.025938,726.304062 C577.839235,726.304062,571.129302,725.020742,564.895938,722.454062 C558.662573,719.887383,553.235961,716.220753,548.615938,711.454062 C543.995914,706.687372,540.365951,700.857430,537.725938,693.964062 C535.085924,687.070695,533.765938,679.224106,533.765938,670.424062 Z M608.565938,662.284063 C608.565938,651.284008,606.255961,642.887425,601.635938,637.094063 C597.015914,631.300700,590.525979,628.404063,582.165938,628.404063 C578.352585,628.404063,574.722621,629.174055,571.275938,630.714062 C567.829254,632.254070,564.712618,634.454048,561.925938,637.314062 C559.139257,640.174077,556.829280,643.694042,554.995938,647.874063 C553.162595,652.054083,551.952607,656.857369,551.365938,662.284063 Z M637.165938,616.744062 L655.865938,616.744062 L676.105938,677.464062 C677.719279,682.744089,679.369262,688.024036,681.055938,693.304062 C682.742613,698.584089,684.392596,703.790704,686.005938,708.924062 L686.885938,708.924062 C688.499279,703.790704,690.112596,698.584089,691.725938,693.304062 C693.339279,688.024036,694.952596,682.744089,696.565938,677.464062 L716.805938,616.744062 L734.625938,616.744062 L696.785938,723.664062 L675.665938,723.664062 Z " style="fill: rgba(5, 29, 84, 1.000000); " fill="#022a67" stroke="none" />
  <path d="M1550.572500,689.639375 C1550.572500,677.905983,1555.815781,668.922740,1566.302500,662.689375 C1576.789219,656.456011,1593.472386,652.092721,1616.352500,649.599375 C1616.352500,646.226025,1616.022503,642.926058,1615.362500,639.699375 C1614.702497,636.472692,1613.529175,633.612721,1611.842500,631.119375 C1610.155825,628.626029,1607.919181,626.609383,1605.132500,625.069375 C1602.345819,623.529367,1598.752522,622.759375,1594.352500,622.759375 C1588.045802,622.759375,1582.215860,623.932697,1576.862500,626.279375 C1571.509140,628.626053,1566.705855,631.266027,1562.452500,634.199375 L1555.192500,621.659375 C1560.179192,618.432692,1566.265797,615.316057,1573.452500,612.309375 C1580.639203,609.302693,1588.559123,607.799375,1597.212500,607.799375 C1610.265899,607.799375,1619.725804,611.796002,1625.592500,619.789375 C1631.459196,627.782748,1634.392500,638.452642,1634.392500,651.799375 L1634.392500,717.359375 L1619.432500,717.359375 L1617.892500,704.599375 L1617.452500,704.599375 C1612.319141,708.852730,1606.782530,712.482693,1600.842500,715.489375 C1594.902470,718.496057,1588.632533,719.999375,1582.032500,719.999375 C1572.939121,719.999375,1565.422530,717.359401,1559.482500,712.079375 C1553.542470,706.799349,1550.572500,699.319423,1550.572500,689.639375 Z M1568.392500,688.319375 C1568.392500,694.479406,1570.189149,698.879362,1573.782500,701.519375 C1577.375851,704.159388,1581.812474,705.479375,1587.092500,705.479375 C1592.225859,705.479375,1597.102477,704.269387,1601.722500,701.849375 C1606.342523,699.429363,1611.219141,695.872732,1616.352500,691.179375 L1616.352500,661.479375 C1607.405789,662.652714,1599.852531,664.046034,1593.692500,665.659375 C1587.532469,667.272716,1582.582519,669.179364,1578.842500,671.379375 C1575.102481,673.579386,1572.425841,676.109361,1570.812500,678.969375 C1569.199159,681.829389,1568.392500,684.946025,1568.392500,688.319375 Z M1668.492500,610.439375 L1683.452500,610.439375 L1684.992500,625.839375 L1685.652500,625.839375 C1690.345857,620.706016,1695.442472,616.416059,1700.942500,612.969375 C1706.442527,609.522691,1712.419134,607.799375,1718.872500,607.799375 C1727.085874,607.799375,1733.502477,609.596024,1738.122500,613.189375 C1742.742523,616.782726,1746.152489,621.806009,1748.352500,628.259375 C1753.925861,622.099344,1759.535805,617.149394,1765.182500,613.409375 C1770.829195,609.669356,1776.952467,607.799375,1783.552500,607.799375 C1794.552555,607.799375,1802.729140,611.319340,1808.082500,618.359375 C1813.435860,625.399410,1816.112500,635.812639,1816.112500,649.599375 L1816.112500,717.359375 L1798.072500,717.359375 L1798.072500,652.019375 C1798.072500,641.899324,1796.459183,634.602731,1793.232500,630.129375 C1790.005817,625.656019,1785.019200,623.419375,1778.272500,623.419375 C1770.205793,623.419375,1761.259216,628.919320,1751.432500,639.919375 L1751.432500,717.359375 L1733.392500,717.359375 L1733.392500,652.019375 C1733.392500,641.899324,1731.779183,634.602731,1728.552500,630.129375 C1725.325817,625.656019,1720.265868,623.419375,1713.372500,623.419375 C1705.305793,623.419375,1696.359216,628.919320,1686.532500,639.919375 L1686.532500,717.359375 L1668.492500,717.359375 Z M1868.912500,726.379375 L1868.912500,762.459375 L1850.872500,762.459375 L1850.872500,610.439375 L1865.832500,610.439375 L1867.372500,622.759375 L1868.032500,622.759375 C1872.872524,618.652688,1878.189138,615.132723,1883.982500,612.199375 C1889.775862,609.266027,1895.825802,607.799375,1902.132500,607.799375 C1909.025868,607.799375,1915.112474,609.082695,1920.392500,611.649375 C1925.672526,614.216055,1930.072482,617.882685,1933.592500,622.649375 C1937.112518,627.416066,1939.789157,633.136008,1941.622500,639.809375 C1943.455843,646.482742,1944.372500,653.999333,1944.372500,662.359375 C1944.372500,671.452754,1943.125846,679.556006,1940.632500,686.669375 C1938.139154,693.782744,1934.765855,699.832683,1930.512500,704.819375 C1926.259145,709.806067,1921.345861,713.582695,1915.772500,716.149375 C1910.199139,718.716055,1904.332531,719.999375,1898.172500,719.999375 C1893.185808,719.999375,1888.235858,718.899386,1883.322500,716.699375 C1878.409142,714.499364,1873.459192,711.492727,1868.472500,707.679375 Z M1868.912500,693.599375 C1873.752524,697.706062,1878.445811,700.602700,1882.992500,702.289375 C1887.539189,703.976050,1891.572482,704.819375,1895.092500,704.819375 C1899.492522,704.819375,1903.562481,703.829385,1907.302500,701.849375 C1911.042519,699.869365,1914.269153,697.082726,1916.982500,693.489375 C1919.695847,689.896024,1921.822492,685.459401,1923.362500,680.179375 C1924.902508,674.899349,1925.672500,668.959408,1925.672500,662.359375 C1925.672500,656.492679,1925.159172,651.139399,1924.132500,646.299375 C1923.105828,641.459351,1921.455845,637.316059,1919.182500,633.869375 C1916.909155,630.422691,1913.975851,627.746051,1910.382500,625.839375 C1906.789149,623.932699,1902.499192,622.979375,1897.512500,622.979375 C1892.965811,622.979375,1888.382523,624.226029,1883.762500,626.719375 C1879.142477,629.212721,1874.192526,632.806018,1868.912500,637.499375 Z " style="fill: rgba(5, 29, 84, 1.000000); " fill="#022a67" stroke="none" />
  <path d="M45.258688,951.699500 C45.258688,946.643475,45.962680,942.099520,47.370688,938.067500 C48.778695,934.035480,50.746675,930.611514,53.274687,927.795500 C55.802700,924.979486,58.778670,922.819508,62.202687,921.315500 C65.626705,919.811492,69.354667,919.059500,73.386687,919.059500 C77.162706,919.059500,80.506673,919.843492,83.418688,921.411500 C86.330702,922.979508,88.714678,924.787490,90.570687,926.835500 L86.058687,931.923500 C84.394679,930.131491,82.538698,928.707505,80.490688,927.651500 C78.442677,926.595495,76.106701,926.067500,73.482687,926.067500 C70.474672,926.067500,67.738700,926.659494,65.274687,927.843500 C62.810675,929.027506,60.714696,930.723489,58.986688,932.931500 C57.258679,935.139511,55.914692,937.811484,54.954687,940.947500 C53.994683,944.083516,53.514688,947.603480,53.514688,951.507500 C53.514688,955.475520,53.978683,959.043484,54.906688,962.211500 C55.834692,965.379516,57.146679,968.083489,58.842687,970.323500 C60.538696,972.563511,62.586676,974.291494,64.986688,975.507500 C67.386699,976.723506,70.090672,977.331500,73.098688,977.331500 C76.106703,977.331500,78.746676,976.723506,81.018687,975.507500 C83.290699,974.291494,85.450677,972.563511,87.498688,970.323500 L92.010688,975.219500 C89.578675,978.099514,86.794703,980.339492,83.658687,981.939500 C80.522672,983.539508,76.938708,984.339500,72.906688,984.339500 C68.938668,984.339500,65.274704,983.603507,61.914687,982.131500 C58.554671,980.659493,55.642700,978.531514,53.178688,975.747500 C50.714675,972.963486,48.778695,969.539520,47.370688,965.475500 C45.962680,961.411480,45.258688,956.819526,45.258688,951.699500 Z M99.306687,959.955500 C99.306687,956.051480,99.898682,952.579515,101.082687,949.539500 C102.266693,946.499485,103.850678,943.923511,105.834688,941.811500 C107.818697,939.699489,110.106675,938.099505,112.698688,937.011500 C115.290700,935.923495,118.026673,935.379500,120.906688,935.379500 C123.786702,935.379500,126.522675,935.923495,129.114688,937.011500 C131.706700,938.099505,133.994678,939.699489,135.978688,941.811500 C137.962697,943.923511,139.546682,946.499485,140.730687,949.539500 C141.914693,952.579515,142.506687,956.051480,142.506687,959.955500 C142.506687,963.795519,141.914693,967.235485,140.730687,970.275500 C139.546682,973.315515,137.962697,975.875490,135.978688,977.955500 C133.994678,980.035510,131.706700,981.619495,129.114688,982.707500 C126.522675,983.795505,123.786702,984.339500,120.906688,984.339500 C118.026673,984.339500,115.290700,983.795505,112.698688,982.707500 C110.106675,981.619495,107.818697,980.035510,105.834688,977.955500 C103.850678,975.875490,102.266693,973.315515,101.082687,970.275500 C99.898682,967.235485,99.306687,963.795519,99.306687,959.955500 Z M107.466688,959.955500 C107.466688,962.643513,107.786684,965.075489,108.426687,967.251500 C109.066691,969.427511,109.978682,971.299492,111.162688,972.867500 C112.346693,974.435508,113.770679,975.651496,115.434687,976.515500 C117.098696,977.379504,118.922678,977.811500,120.906688,977.811500 C122.890697,977.811500,124.714679,977.379504,126.378687,976.515500 C128.042696,975.651496,129.466682,974.435508,130.650688,972.867500 C131.834693,971.299492,132.746684,969.427511,133.386687,967.251500 C134.026691,965.075489,134.346688,962.643513,134.346688,959.955500 C134.346688,957.267487,134.026691,954.819511,133.386687,952.611500 C132.746684,950.403489,131.834693,948.499508,130.650688,946.899500 C129.466682,945.299492,128.042696,944.067504,126.378687,943.203500 C124.714679,942.339496,122.890697,941.907500,120.906688,941.907500 C118.922678,941.907500,117.098696,942.339496,115.434687,943.203500 C113.770679,944.067504,112.346693,945.299492,111.162688,946.899500 C109.978682,948.499508,109.066691,950.403489,108.426687,952.611500 C107.786684,954.819511,107.466688,957.267487,107.466688,959.955500 Z M154.794688,914.835500 L162.666687,914.835500 L162.666687,974.355500 C162.666687,975.635506,162.890685,976.531497,163.338687,977.043500 C163.786690,977.555503,164.298685,977.811500,164.874687,977.811500 C165.130689,977.811500,165.370686,977.811500,165.594687,977.811500 C165.818689,977.811500,166.154685,977.747501,166.602688,977.619500 L167.658687,983.571500 C167.146685,983.827501,166.538691,984.019499,165.834688,984.147500 C165.130684,984.275501,164.234693,984.339500,163.146687,984.339500 C160.138672,984.339500,157.994694,983.443509,156.714687,981.651500 C155.434681,979.859491,154.794688,977.235517,154.794688,973.779500 Z M175.818687,959.955500 C175.818687,956.051480,176.410682,952.579515,177.594687,949.539500 C178.778693,946.499485,180.362678,943.923511,182.346687,941.811500 C184.330697,939.699489,186.618675,938.099505,189.210687,937.011500 C191.802700,935.923495,194.538673,935.379500,197.418687,935.379500 C200.298702,935.379500,203.034675,935.923495,205.626688,937.011500 C208.218700,938.099505,210.506678,939.699489,212.490687,941.811500 C214.474697,943.923511,216.058682,946.499485,217.242687,949.539500 C218.426693,952.579515,219.018687,956.051480,219.018687,959.955500 C219.018687,963.795519,218.426693,967.235485,217.242687,970.275500 C216.058682,973.315515,214.474697,975.875490,212.490687,977.955500 C210.506678,980.035510,208.218700,981.619495,205.626688,982.707500 C203.034675,983.795505,200.298702,984.339500,197.418687,984.339500 C194.538673,984.339500,191.802700,983.795505,189.210687,982.707500 C186.618675,981.619495,184.330697,980.035510,182.346687,977.955500 C180.362678,975.875490,178.778693,973.315515,177.594687,970.275500 C176.410682,967.235485,175.818687,963.795519,175.818687,959.955500 Z M183.978687,959.955500 C183.978687,962.643513,184.298684,965.075489,184.938687,967.251500 C185.578691,969.427511,186.490682,971.299492,187.674687,972.867500 C188.858693,974.435508,190.282679,975.651496,191.946687,976.515500 C193.610696,977.379504,195.434678,977.811500,197.418687,977.811500 C199.402697,977.811500,201.226679,977.379504,202.890687,976.515500 C204.554696,975.651496,205.978682,974.435508,207.162687,972.867500 C208.346693,971.299492,209.258684,969.427511,209.898687,967.251500 C210.538691,965.075489,210.858687,962.643513,210.858687,959.955500 C210.858687,957.267487,210.538691,954.819511,209.898687,952.611500 C209.258684,950.403489,208.346693,948.499508,207.162687,946.899500 C205.978682,945.299492,204.554696,944.067504,202.890687,943.203500 C201.226679,942.339496,199.402697,941.907500,197.418687,941.907500 C195.434678,941.907500,193.610696,942.339496,191.946687,943.203500 C190.282679,944.067504,188.858693,945.299492,187.674687,946.899500 C186.490682,948.499508,185.578691,950.403489,184.938687,952.611500 C184.298684,954.819511,183.978687,957.267487,183.978687,959.955500 Z M231.306688,936.531500 L237.834688,936.531500 L238.506687,944.979500 L238.794688,944.979500 C240.394696,942.035485,242.330676,939.699509,244.602688,937.971500 C246.874699,936.243491,249.354674,935.379500,252.042687,935.379500 C253.898697,935.379500,255.562680,935.699497,257.034688,936.339500 L255.498687,943.251500 C254.730684,942.995499,254.026691,942.803501,253.386687,942.675500 C252.746684,942.547499,251.946692,942.483500,250.986687,942.483500 C249.002678,942.483500,246.938698,943.283492,244.794688,944.883500 C242.650677,946.483508,240.778696,949.267480,239.178687,953.235500 L239.178687,983.187500 L231.306688,983.187500 Z M259.818688,971.091500 C259.818688,965.971474,262.106665,962.051514,266.682687,959.331500 C271.258710,956.611486,278.538638,954.707505,288.522687,953.619500 C288.522687,952.147493,288.378689,950.707507,288.090688,949.299500 C287.802686,947.891493,287.290691,946.643505,286.554688,945.555500 C285.818684,944.467495,284.842694,943.587503,283.626688,942.915500 C282.410681,942.243497,280.842697,941.907500,278.922687,941.907500 C276.170674,941.907500,273.626699,942.419495,271.290687,943.443500 C268.954676,944.467505,266.858697,945.619494,265.002687,946.899500 L261.834687,941.427500 C264.010698,940.019493,266.666672,938.659507,269.802687,937.347500 C272.938703,936.035493,276.394669,935.379500,280.170687,935.379500 C285.866716,935.379500,289.994675,937.123483,292.554688,940.611500 C295.114700,944.099517,296.394687,948.755471,296.394687,954.579500 L296.394687,983.187500 L289.866688,983.187500 L289.194687,977.619500 L289.002687,977.619500 C286.762676,979.475509,284.346700,981.059493,281.754687,982.371500 C279.162675,983.683507,276.426702,984.339500,273.546687,984.339500 C269.578668,984.339500,266.298700,983.187512,263.706687,980.883500 C261.114675,978.579488,259.818688,975.315521,259.818688,971.091500 Z M267.594687,970.515500 C267.594687,973.203513,268.378680,975.123494,269.946687,976.275500 C271.514695,977.427506,273.450676,978.003500,275.754687,978.003500 C277.994699,978.003500,280.122677,977.475505,282.138688,976.419500 C284.154698,975.363495,286.282676,973.811510,288.522687,971.763500 L288.522687,958.803500 C284.618668,959.315503,281.322701,959.923496,278.634687,960.627500 C275.946674,961.331504,273.786696,962.163495,272.154688,963.123500 C270.522679,964.083505,269.354691,965.187494,268.650688,966.435500 C267.946684,967.683506,267.594687,969.043493,267.594687,970.515500 Z M307.914688,959.955500 C307.914688,956.179481,308.474682,952.771515,309.594688,949.731500 C310.714693,946.691485,312.202678,944.115511,314.058688,942.003500 C315.914697,939.891489,318.058675,938.259506,320.490688,937.107500 C322.922700,935.955494,325.482674,935.379500,328.170687,935.379500 C330.858701,935.379500,333.194678,935.859495,335.178688,936.819500 C337.162697,937.779505,339.178677,939.091492,341.226688,940.755500 L340.842688,932.787500 L340.842688,914.835500 L348.810688,914.835500 L348.810688,983.187500 L342.282688,983.187500 L341.610688,977.715500 L341.322688,977.715500 C339.466678,979.507509,337.338700,981.059493,334.938688,982.371500 C332.538676,983.683507,329.962701,984.339500,327.210688,984.339500 C321.322658,984.339500,316.634705,982.227521,313.146687,978.003500 C309.658670,973.779479,307.914688,967.763539,307.914688,959.955500 Z M316.074688,959.859500 C316.074688,965.491528,317.194676,969.875484,319.434687,973.011500 C321.674699,976.147516,324.842667,977.715500,328.938688,977.715500 C331.114698,977.715500,333.162678,977.187505,335.082688,976.131500 C337.002697,975.075495,338.922678,973.459511,340.842688,971.283500 L340.842688,946.899500 C338.858678,945.107491,336.954697,943.843504,335.130688,943.107500 C333.306678,942.371496,331.434697,942.003500,329.514688,942.003500 C327.658678,942.003500,325.914696,942.435496,324.282688,943.299500 C322.650679,944.163504,321.226694,945.379492,320.010688,946.947500 C318.794681,948.515508,317.834691,950.387489,317.130688,952.563500 C316.426684,954.739511,316.074688,957.171487,316.074688,959.859500 Z M361.098688,959.955500 C361.098688,956.051480,361.690682,952.579515,362.874688,949.539500 C364.058693,946.499485,365.642678,943.923511,367.626688,941.811500 C369.610697,939.699489,371.898675,938.099505,374.490688,937.011500 C377.082700,935.923495,379.818673,935.379500,382.698688,935.379500 C385.578702,935.379500,388.314675,935.923495,390.906688,937.011500 C393.498700,938.099505,395.786678,939.699489,397.770688,941.811500 C399.754697,943.923511,401.338682,946.499485,402.522688,949.539500 C403.706693,952.579515,404.298688,956.051480,404.298688,959.955500 C404.298688,963.795519,403.706693,967.235485,402.522688,970.275500 C401.338682,973.315515,399.754697,975.875490,397.770688,977.955500 C395.786678,980.035510,393.498700,981.619495,390.906688,982.707500 C388.314675,983.795505,385.578702,984.339500,382.698688,984.339500 C379.818673,984.339500,377.082700,983.795505,374.490688,982.707500 C371.898675,981.619495,369.610697,980.035510,367.626688,977.955500 C365.642678,975.875490,364.058693,973.315515,362.874688,970.275500 C361.690682,967.235485,361.098688,963.795519,361.098688,959.955500 Z M369.258688,959.955500 C369.258688,962.643513,369.578684,965.075489,370.218688,967.251500 C370.858691,969.427511,371.770682,971.299492,372.954688,972.867500 C374.138693,974.435508,375.562679,975.651496,377.226688,976.515500 C378.890696,977.379504,380.714678,977.811500,382.698688,977.811500 C384.682697,977.811500,386.506679,977.379504,388.170688,976.515500 C389.834696,975.651496,391.258682,974.435508,392.442688,972.867500 C393.626693,971.299492,394.538684,969.427511,395.178688,967.251500 C395.818691,965.075489,396.138688,962.643513,396.138688,959.955500 C396.138688,957.267487,395.818691,954.819511,395.178688,952.611500 C394.538684,950.403489,393.626693,948.499508,392.442688,946.899500 C391.258682,945.299492,389.834696,944.067504,388.170688,943.203500 C386.506679,942.339496,384.682697,941.907500,382.698688,941.907500 C380.714678,941.907500,378.890696,942.339496,377.226688,943.203500 C375.562679,944.067504,374.138693,945.299492,372.954688,946.899500 C371.770682,948.499508,370.858691,950.403489,370.218688,952.611500 C369.578684,954.819511,369.258688,957.267487,369.258688,959.955500 Z M436.746688,969.459500 C438.986699,971.827512,441.610672,973.731493,444.618688,975.171500 C447.626703,976.611507,450.794671,977.331500,454.122688,977.331500 C458.282708,977.331500,461.514676,976.387509,463.818688,974.499500 C466.122699,972.611491,467.274688,970.131515,467.274688,967.059500 C467.274688,965.459492,467.002690,964.099506,466.458687,962.979500 C465.914685,961.859494,465.162692,960.899504,464.202688,960.099500 C463.242683,959.299496,462.122694,958.579503,460.842688,957.939500 C459.562681,957.299497,458.186695,956.627504,456.714688,955.923500 L447.690688,951.987500 C446.218680,951.347497,444.730695,950.579504,443.226688,949.683500 C441.722680,948.787496,440.346694,947.699506,439.098688,946.419500 C437.850681,945.139494,436.842691,943.619509,436.074688,941.859500 C435.306684,940.099491,434.922687,938.067512,434.922687,935.763500 C434.922687,933.395488,435.418683,931.187510,436.410687,929.139500 C437.402692,927.091490,438.794679,925.315508,440.586688,923.811500 C442.378696,922.307492,444.474676,921.139504,446.874688,920.307500 C449.274700,919.475496,451.914673,919.059500,454.794688,919.059500 C458.570706,919.059500,462.042672,919.779493,465.210688,921.219500 C468.378703,922.659507,471.082676,924.531488,473.322688,926.835500 L469.098688,932.019500 C467.178678,930.163491,465.034699,928.707505,462.666688,927.651500 C460.298676,926.595495,457.674702,926.067500,454.794688,926.067500 C451.210670,926.067500,448.346698,926.883492,446.202688,928.515500 C444.058677,930.147508,442.986688,932.403486,442.986688,935.283500 C442.986688,936.819508,443.306684,938.115495,443.946687,939.171500 C444.586691,940.227505,445.402683,941.155496,446.394688,941.955500 C447.386692,942.755504,448.506681,943.459497,449.754688,944.067500 C451.002694,944.675503,452.234681,945.235497,453.450688,945.747500 L462.474688,949.587500 C464.266696,950.355504,465.962680,951.235495,467.562688,952.227500 C469.162696,953.219505,470.538682,954.371493,471.690688,955.683500 C472.842693,956.995507,473.754684,958.531491,474.426688,960.291500 C475.098691,962.051509,475.434687,964.083488,475.434687,966.387500 C475.434687,968.883512,474.938692,971.219489,473.946688,973.395500 C472.954683,975.571511,471.530697,977.475492,469.674688,979.107500 C467.818678,980.739508,465.562701,982.019495,462.906688,982.947500 C460.250674,983.875505,457.258704,984.339500,453.930688,984.339500 C449.514665,984.339500,445.434706,983.507508,441.690688,981.843500 C437.946669,980.179492,434.698701,977.907514,431.946687,975.027500 Z M494.634688,987.123500 L494.634688,1002.867500 L486.762688,1002.867500 L486.762688,936.531500 L493.290687,936.531500 L493.962688,941.907500 L494.250688,941.907500 C496.362698,940.115491,498.682675,938.579506,501.210688,937.299500 C503.738700,936.019494,506.378674,935.379500,509.130688,935.379500 C512.138703,935.379500,514.794676,935.939494,517.098687,937.059500 C519.402699,938.179506,521.322680,939.779490,522.858688,941.859500 C524.394695,943.939510,525.562684,946.435485,526.362687,949.347500 C527.162692,952.259515,527.562688,955.539482,527.562688,959.187500 C527.562688,963.155520,527.018693,966.691484,525.930687,969.795500 C524.842682,972.899516,523.370697,975.539489,521.514688,977.715500 C519.658678,979.891511,517.514700,981.539494,515.082688,982.659500 C512.650675,983.779506,510.090701,984.339500,507.402688,984.339500 C505.226677,984.339500,503.066698,983.859505,500.922687,982.899500 C498.778677,981.939495,496.618698,980.627508,494.442688,978.963500 Z M494.634688,972.819500 C496.746698,974.611509,498.794678,975.875496,500.778687,976.611500 C502.762697,977.347504,504.522680,977.715500,506.058688,977.715500 C507.978697,977.715500,509.754679,977.283504,511.386687,976.419500 C513.018696,975.555496,514.426682,974.339508,515.610688,972.771500 C516.794693,971.203492,517.722684,969.267512,518.394688,966.963500 C519.066691,964.659488,519.402687,962.067514,519.402687,959.187500 C519.402687,956.627487,519.178690,954.291511,518.730688,952.179500 C518.282685,950.067489,517.562692,948.259508,516.570688,946.755500 C515.578683,945.251492,514.298695,944.083504,512.730688,943.251500 C511.162680,942.419496,509.290698,942.003500,507.114688,942.003500 C505.130678,942.003500,503.130698,942.547495,501.114688,943.635500 C499.098677,944.723505,496.938699,946.291490,494.634688,948.339500 Z M540.042688,936.531500 L546.570687,936.531500 L547.242687,944.979500 L547.530687,944.979500 C549.130696,942.035485,551.066676,939.699509,553.338687,937.971500 C555.610699,936.243491,558.090674,935.379500,560.778687,935.379500 C562.634697,935.379500,564.298680,935.699497,565.770688,936.339500 L564.234687,943.251500 C563.466684,942.995499,562.762691,942.803501,562.122687,942.675500 C561.482684,942.547499,560.682692,942.483500,559.722688,942.483500 C557.738678,942.483500,555.674698,943.283492,553.530687,944.883500 C551.386677,946.483508,549.514696,949.267480,547.914688,953.235500 L547.914688,983.187500 L540.042688,983.187500 Z M577.386687,926.931500 C575.850680,926.931500,574.554693,926.451505,573.498687,925.491500 C572.442682,924.531495,571.914688,923.315507,571.914688,921.843500 C571.914688,920.307492,572.442682,919.075505,573.498687,918.147500 C574.554693,917.219495,575.850680,916.755500,577.386687,916.755500 C578.922695,916.755500,580.218682,917.219495,581.274688,918.147500 C582.330693,919.075505,582.858687,920.307492,582.858687,921.843500 C582.858687,923.315507,582.330693,924.531495,581.274688,925.491500 C580.218682,926.451505,578.922695,926.931500,577.386687,926.931500 Z M573.354687,936.531500 L581.226688,936.531500 L581.226688,983.187500 L573.354687,983.187500 Z M596.970687,936.531500 L603.498687,936.531500 L604.170687,943.251500 L604.458687,943.251500 C606.698699,941.011489,609.050675,939.139508,611.514688,937.635500 C613.978700,936.131492,616.842671,935.379500,620.106688,935.379500 C625.034712,935.379500,628.634676,936.915485,630.906687,939.987500 C633.178699,943.059515,634.314687,947.603470,634.314687,953.619500 L634.314687,983.187500 L626.442688,983.187500 L626.442688,954.675500 C626.442688,950.259478,625.738695,947.075510,624.330687,945.123500 C622.922680,943.171490,620.682703,942.195500,617.610688,942.195500 C615.178675,942.195500,613.034697,942.803494,611.178688,944.019500 C609.322678,945.235506,607.210699,947.027488,604.842688,949.395500 L604.842688,983.187500 L596.970687,983.187500 Z M652.842688,991.059500 C652.842688,993.555512,654.042675,995.539493,656.442688,997.011500 C658.842700,998.483507,662.154666,999.219500,666.378688,999.219500 C668.618699,999.219500,670.650678,998.947503,672.474688,998.403500 C674.298697,997.859497,675.850681,997.155504,677.130688,996.291500 C678.410694,995.427496,679.402684,994.419506,680.106688,993.267500 C680.810691,992.115494,681.162688,990.931506,681.162688,989.715500 C681.162688,987.539489,680.362696,986.035504,678.762688,985.203500 C677.162680,984.371496,674.826703,983.955500,671.754688,983.955500 L663.690688,983.955500 C662.794683,983.955500,661.818693,983.907500,660.762688,983.811500 C659.706682,983.715500,658.666693,983.507502,657.642688,983.187500 C655.978679,984.403506,654.762691,985.683493,653.994688,987.027500 C653.226684,988.371507,652.842688,989.715493,652.842688,991.059500 Z M645.930688,992.115500 C645.930688,990.131490,646.538681,988.243509,647.754688,986.451500 C648.970694,984.659491,650.634677,983.027507,652.746688,981.555500 L652.746688,981.171500 C651.594682,980.467496,650.618692,979.491506,649.818688,978.243500 C649.018684,976.995494,648.618688,975.443509,648.618688,973.587500 C648.618688,971.603490,649.162682,969.875507,650.250688,968.403500 C651.338693,966.931493,652.490681,965.779504,653.706688,964.947500 L653.706688,964.563500 C652.170680,963.283494,650.778694,961.571511,649.530687,959.427500 C648.282681,957.283489,647.658688,954.803514,647.658688,951.987500 C647.658688,949.427487,648.122683,947.123510,649.050688,945.075500 C649.978692,943.027490,651.242680,941.283507,652.842688,939.843500 C654.442696,938.403493,656.314677,937.299504,658.458687,936.531500 C660.602698,935.763496,662.858676,935.379500,665.226688,935.379500 C666.506694,935.379500,667.706682,935.491499,668.826688,935.715500 C669.946693,935.939501,670.954683,936.211498,671.850688,936.531500 L688.074687,936.531500 L688.074687,942.579500 L678.474688,942.579500 C679.562693,943.667505,680.474684,945.043492,681.210688,946.707500 C681.946691,948.371508,682.314687,950.195490,682.314687,952.179500 C682.314687,954.675512,681.866692,956.931490,680.970688,958.947500 C680.074683,960.963510,678.858695,962.659493,677.322688,964.035500 C675.786680,965.411507,673.978698,966.483496,671.898688,967.251500 C669.818677,968.019504,667.594699,968.403500,665.226688,968.403500 C664.074682,968.403500,662.890694,968.259501,661.674688,967.971500 C660.458681,967.683499,659.306693,967.283503,658.218687,966.771500 C657.386683,967.475504,656.682690,968.259496,656.106688,969.123500 C655.530685,969.987504,655.242687,971.059494,655.242687,972.339500 C655.242687,973.811507,655.818682,975.027495,656.970688,975.987500 C658.122693,976.947505,660.298672,977.427500,663.498688,977.427500 L672.522688,977.427500 C677.962715,977.427500,682.042674,978.307491,684.762688,980.067500 C687.482701,981.827509,688.842688,984.659480,688.842688,988.563500 C688.842688,990.739511,688.298693,992.803490,687.210688,994.755500 C686.122682,996.707510,684.554698,998.419493,682.506687,999.891500 C680.458677,1001.363507,677.978702,1002.531496,675.066688,1003.395500 C672.154673,1004.259504,668.874706,1004.691500,665.226688,1004.691500 C662.346673,1004.691500,659.722699,1004.419503,657.354688,1003.875500 C654.986676,1003.331497,652.954696,1002.515505,651.258688,1001.427500 C649.562679,1000.339495,648.250692,999.027508,647.322688,997.491500 C646.394683,995.955492,645.930688,994.163510,645.930688,992.115500 Z M665.226688,963.123500 C666.570694,963.123500,667.834682,962.867503,669.018688,962.355500 C670.202693,961.843497,671.258683,961.107505,672.186688,960.147500 C673.114692,959.187495,673.834685,958.019507,674.346688,956.643500 C674.858690,955.267493,675.114688,953.715509,675.114688,951.987500 C675.114688,948.531483,674.154697,945.859509,672.234688,943.971500 C670.314678,942.083491,667.978701,941.139500,665.226688,941.139500 C662.474674,941.139500,660.138697,942.083491,658.218687,943.971500 C656.298678,945.859509,655.338687,948.531483,655.338687,951.987500 C655.338687,953.715509,655.594685,955.267493,656.106688,956.643500 C656.618690,958.019507,657.338683,959.187495,658.266687,960.147500 C659.194692,961.107505,660.250682,961.843497,661.434687,962.355500 C662.618693,962.867503,663.882681,963.123500,665.226688,963.123500 Z M696.618688,972.627500 C698.666698,974.291508,700.762677,975.635495,702.906688,976.659500 C705.050698,977.683505,707.530673,978.195500,710.346688,978.195500 C713.418703,978.195500,715.722680,977.491507,717.258688,976.083500 C718.794695,974.675493,719.562688,972.947510,719.562688,970.899500 C719.562688,969.683494,719.242691,968.627504,718.602688,967.731500 C717.962684,966.835496,717.146692,966.051503,716.154688,965.379500 C715.162683,964.707497,714.026694,964.115503,712.746688,963.603500 C711.466681,963.091497,710.186694,962.579503,708.906688,962.067500 C707.242679,961.491497,705.578696,960.835504,703.914688,960.099500 C702.250679,959.363496,700.762694,958.467505,699.450688,957.411500 C698.138681,956.355495,697.066692,955.123507,696.234688,953.715500 C695.402683,952.307493,694.986688,950.611510,694.986688,948.627500 C694.986688,946.771491,695.354684,945.027508,696.090688,943.395500 C696.826691,941.763492,697.882681,940.355506,699.258688,939.171500 C700.634694,937.987494,702.314678,937.059503,704.298688,936.387500 C706.282697,935.715497,708.522675,935.379500,711.018688,935.379500 C713.962702,935.379500,716.666675,935.891495,719.130688,936.915500 C721.594700,937.939505,723.722679,939.187493,725.514688,940.659500 L721.770688,945.651500 C720.170680,944.435494,718.506696,943.443504,716.778688,942.675500 C715.050679,941.907496,713.162698,941.523500,711.114688,941.523500 C708.170673,941.523500,706.010694,942.195493,704.634688,943.539500 C703.258681,944.883507,702.570688,946.451491,702.570688,948.243500 C702.570688,949.331505,702.858685,950.259496,703.434688,951.027500 C704.010690,951.795504,704.778683,952.499497,705.738688,953.139500 C706.698692,953.779503,707.802681,954.339498,709.050688,954.819500 C710.298694,955.299502,711.594681,955.795497,712.938688,956.307500 C714.602696,956.947503,716.282679,957.619496,717.978688,958.323500 C719.674696,959.027504,721.194681,959.907495,722.538688,960.963500 C723.882694,962.019505,724.986683,963.315492,725.850688,964.851500 C726.714692,966.387508,727.146688,968.243489,727.146688,970.419500 C727.146688,972.339510,726.778691,974.131492,726.042688,975.795500 C725.306684,977.459508,724.218695,978.931494,722.778688,980.211500 C721.338680,981.491506,719.546698,982.499496,717.402688,983.235500 C715.258677,983.971504,712.810701,984.339500,710.058688,984.339500 C706.730671,984.339500,703.562703,983.731506,700.554688,982.515500 C697.546672,981.299494,694.922699,979.763509,692.682688,977.907500 Z " style="fill: rgba(255, 255, 255, 1.000000); " fill="#feffff" stroke="none" />
</g><g style="">  <ellipse cx="1222.000000" cy="667.000000" rx="222.000000" ry="222.000000" style="fill: rgba(254, 209, 10, 1.000000); " fill="#ffd600" stroke="none"  />
</g></svg>